<svg xmlns="http://www.w3.org/2000/svg" xmlns:xlink="http://www.w3.org/1999/xlink" id="Layer_1" x="0" y="0" version="1.1" viewBox="0 0 128 128" xml:space="preserve" style="enable-background:new 0 0 128 128"><style type="text/css">.st0{opacity:.6;fill:#d1d1d1}.st1{clip-path:url(#SVGID_2_);fill:url(#SVGID_3_)}.st2{opacity:.3;fill:none;stroke:#005d7a;stroke-miterlimit:10}.st2,.st3{clip-path:url(#SVGID_2_)}.st4{fill:#032454}.st5{fill:#b2e1fe}.st6{fill:#e4f0fc}.st7{fill:#b1e0fd}.st8{fill:#b0dffc}.st9{fill:#b1dffd}.st10{fill:#e1eefa}</style><path d="M120.7,127.9H12c-4,0-7.3-3.2-7.3-7.3V11.9c0-4,3.2-7.3,7.3-7.3h108.8c4,0,7.3,3.2,7.3,7.3v108.8	C128,124.7,124.8,127.9,120.7,127.9z" class="st0"/><g><defs><path id="SVGID_1_" d="M117.3,123.6H6.3c-3.4,0-6.1-2.7-6.1-6.1V6.4c0-3.4,2.7-6.1,6.1-6.1h111.1c3.4,0,6.1,2.7,6.1,6.1v111.1 C123.4,120.9,120.7,123.6,117.3,123.6z"/></defs><clipPath id="SVGID_2_"><use xlink:href="#SVGID_1_" style="overflow:visible"/></clipPath><linearGradient id="SVGID_3_" x1="61.785" x2="61.785" y1=".298" y2="123.59" gradientUnits="userSpaceOnUse"><stop offset="0" style="stop-color:#124175"/><stop offset=".475" style="stop-color:#0e3969"/><stop offset="1" style="stop-color:#082d57"/></linearGradient><path d="M117.3,123.6H6.3c-3.4,0-6.1-2.7-6.1-6.1V6.4c0-3.4,2.7-6.1,6.1-6.1h111.1c3.4,0,6.1,2.7,6.1,6.1v111.1 C123.4,120.9,120.7,123.6,117.3,123.6z" class="st1"/><line x1="-9.4" x2="46.3" y1="37.6" y2="-18.2" class="st2"/><line x1="-21.7" x2="118" y1="-10.7" y2="129.1" class="st2"/><line x1="98.5" x2="98.5" y1="-17" y2="134" class="st2"/><g class="st3"><path d="M15.7,62.8c2.8,0,5.6,0,8.3,0c0-1,0-1.9,0-2.8c-2.8,0-5.6,0-8.3,0c0-1.3,0-2.5,0-3.6c3,0,5.9,0,8.9,0 c0-1,0-1.9,0-2.8c-4.1,0-8.1,0-12.3,0c0,5.6,0,11.1,0,16.7c4.1,0,8.4,0,12.5,0c0-1,0-1.9,0-2.8c-3.1,0-6.1,0-9.2,0 C15.7,65.8,15.7,64.4,15.7,62.8z" class="st4"/><path d="M79.7,65.8c-0.7,1.4-2.1,2-3.7,1.7c-1.7-0.3-2.7-1.4-3.1-3c-0.4-1.4-0.4-2.8-0.2-4.2c0.1-0.8,0.3-1.7,0.7-2.4 c0.7-1.4,2-1.9,3.5-1.8c1.6,0.1,2.6,0.9,3.1,2.4c0,0.1,0.1,0.2,0.1,0.4c1.1-0.2,2.2-0.4,3.4-0.7c-0.7-2.5-2.1-4.2-4.6-4.8 c-0.8-0.2-1.7-0.2-2.5-0.3c-3.1,0-5.8,1.8-6.8,4.8c-0.9,2.4-0.9,4.9-0.1,7.4c0.3,1.1,1,2.1,1.8,2.9c2.4,2.5,6.8,2.6,9.3,1.1 c1.6-1,2.5-2.5,3-4.4c-1.1-0.4-2.2-0.7-3.3-1C80.1,64.7,79.9,65.3,79.7,65.8z" class="st4"/><path d="M45.5,60.9c-0.2-1.4-1-2.3-2.3-2.8c-1.7-0.6-3.3-0.3-4.7,0.9c-0.2,0.1-0.4,0.3-0.6,0.5c0-2,0-4,0-5.9 c-1,0-2.1,0-3.2,0c0,5.6,0,11.1,0,16.7c1.2,0,2.2,0,3.2,0c0-0.3,0-0.5,0-0.7c0-1.9,0-3.7,0-5.6c0-0.8,0.2-1.6,0.4-2.3 c0.3-0.9,1.5-1.5,2.5-1.3c1,0.2,1.4,0.7,1.5,1.9c0,0.2,0,0.3,0,0.5c0,2.2,0,4.5,0,6.7c0,0.2,0,0.5,0,0.7c1.1,0,2.1,0,3.2,0 c0-0.1,0-0.2,0-0.3c0-2.5,0-5,0-7.5C45.6,61.9,45.6,61.4,45.5,60.9z" class="st4"/><path d="M95.9,66.1c0-0.8,0-1.6,0-2.4c0-0.9,0-1.9-0.1-2.8c-0.1-1.5-1-2.4-2.5-2.8c-1.6-0.4-3.3-0.4-4.9,0 c-1.5,0.4-2.7,1.8-2.8,3.4c0.8,0.1,1.6,0.2,2.3,0.3c0.2,0,0.3,0,0.5,0c0.6-1.3,1.1-1.7,2.7-1.5c1.2,0.2,1.6,0.6,1.5,2 c-0.4,0.1-0.9,0.3-1.3,0.4c-1.3,0.3-2.6,0.6-3.9,1c-1.6,0.5-2.3,1.9-2.2,3.5c0.1,1.5,1.2,2.7,2.7,3.1c1.7,0.4,3.2,0.1,4.6-0.9 c0.1-0.1,0.3-0.2,0.5-0.3c0.1,0.4,0.3,0.8,0.4,1.1c1.1,0,2.1,0,3.2,0C95.9,68.8,95.8,67.5,95.9,66.1z M92.5,66.6 c-0.3,1.3-2.1,2-3.2,1.4c-0.6-0.3-0.9-0.8-0.8-1.5c0-0.6,0.4-1,1-1.2c0.3-0.1,0.7-0.2,1-0.3c0.7-0.2,1.4-0.3,2.2-0.5 C92.7,65.3,92.7,66,92.5,66.6z" class="st4"/><path d="M59,65c-0.2-1.3-0.3-2.4-0.6-3.5c-0.6-2.2-2.2-3.4-4.4-3.7c-2.2-0.3-4.1,0.4-5.4,2.3c-1.4,2.1-1.4,6,0.1,8.1 c0.5,0.7,1.1,1.3,1.9,1.6c1.8,0.8,3.6,0.8,5.3,0.1c1.5-0.6,2.3-1.8,2.8-3.3c-0.6-0.1-1.1-0.2-1.6-0.2c-0.5-0.1-1.1-0.1-1.6-0.2 c-0.7,1.5-1.5,1.9-2.8,1.6c-1.1-0.3-1.9-1.6-1.8-2.8C53.5,65,56.2,65,59,65z M51.9,60.7c0.7-0.5,1.6-0.6,2.4-0.2 c1,0.5,1.3,1.4,1.3,2.5c-1.6,0-3.1,0-4.7,0C50.9,62.1,51.2,61.3,51.9,60.7z" class="st4"/><path d="M112.2,65.7c-0.1,0.3-0.1,0.5-0.2,0.8c-0.3,1-1,1.6-2,1.6c-1,0-1.8-0.3-2.2-1.3c-0.7-1.7-0.7-3.4-0.1-5.1 c0.3-0.9,1.3-1.4,2.2-1.3c1,0.1,1.6,0.6,1.9,1.6c0,0.1,0.1,0.2,0.1,0.4c1.1-0.1,2.1-0.3,3.2-0.4c-0.6-2-1.6-3.4-3.6-3.8 c-0.9-0.2-1.8-0.3-2.7-0.2c-2.2,0.2-3.8,1.4-4.5,3.6c-0.6,1.8-0.6,3.7,0,5.6c0.6,1.7,1.8,2.8,3.6,3.3c1.3,0.3,2.7,0.3,4-0.1 c1.8-0.6,3.2-2.3,3.3-4.1C114.3,65.9,113.3,65.8,112.2,65.7z" class="st4"/><path d="M31.9,67.8c-0.7,0.1-1.1-0.1-1.2-0.8c0-0.3,0-0.5,0-0.8c0-1.6,0-3.2,0-4.8c0-0.3,0-0.5,0-0.9 c0.8,0,1.5,0,2.2,0c0-0.9,0-1.7,0-2.5c-0.6,0-1.4,0-2.2,0c0-1.4,0-2.8,0-4.3c-1.2,0.7-2.2,1.3-3.2,2c0,0.8,0,1.5,0,2.3 c-0.5,0-0.9,0-1.4,0c0,0.8,0,1.5,0,2.5c0.5,0,0.9,0,1.4,0c0,0.3,0,0.5,0,0.7c0,1.8,0,3.5,0,5.3c0,0.6,0.1,1.3,0.2,1.9 c0.1,0.7,0.5,1.3,1.2,1.6c1.4,0.7,2.9,0.4,4.3-0.1c-0.1-0.8-0.2-1.6-0.3-2.4C32.5,67.7,32.2,67.8,31.9,67.8z" class="st4"/><path d="M98.7,70.2c1,0,2.1,0,3.2,0c0-5.6,0-11.1,0-16.7c-1.2,0-2.2,0-3.2,0C98.7,59.1,98.7,64.7,98.7,70.2z" class="st4"/><path d="M66,57.8c-1,0.1-1.5,0.9-2.1,1.7c0,0-0.1,0-0.1-0.1c0-0.4,0-0.9,0-1.4c-1,0-1.9,0-3,0c0,4.1,0,8.1,0,12.1 c1.2,0,2.1,0,3.2,0c0-0.4,0-0.6,0-0.8c0-2,0.1-4.1,0.1-6.1c0-0.5,0.2-1.1,0.4-1.5c0.4-0.9,1.2-1.2,2.1-0.9c0.3,0.1,0.7,0.2,1,0.4 c0.3-0.9,0.6-1.8,1-2.7C67.9,57.9,67,57.7,66,57.8z" class="st4"/></g><g class="st3"><path d="M14.6,61c2.8,0,5.6,0,8.3,0c0-1,0-1.9,0-2.8c-2.8,0-5.6,0-8.3,0c0-1.3,0-2.5,0-3.6c3,0,5.9,0,8.9,0 c0-1,0-1.9,0-2.8c-4.1,0-8.1,0-12.3,0c0,5.6,0,11.1,0,16.7c4.1,0,8.4,0,12.5,0c0-1,0-1.9,0-2.8c-3.1,0-6.1,0-9.2,0 C14.6,63.9,14.6,62.5,14.6,61z" class="st5"/><path d="M78.6,63.9c-0.7,1.4-2.1,2-3.7,1.7c-1.7-0.3-2.7-1.4-3.1-3c-0.4-1.4-0.4-2.8-0.2-4.2c0.1-0.8,0.3-1.7,0.7-2.4 c0.7-1.4,2-1.9,3.5-1.8c1.6,0.1,2.6,0.9,3.1,2.4c0,0.1,0.1,0.2,0.1,0.4c1.1-0.2,2.2-0.4,3.4-0.7c-0.7-2.5-2.1-4.2-4.6-4.8 c-0.8-0.2-1.7-0.2-2.5-0.3c-3.1,0-5.8,1.8-6.8,4.8c-0.9,2.4-0.9,4.9-0.1,7.4c0.3,1.1,1,2.1,1.8,2.9c2.4,2.5,6.8,2.6,9.3,1.1 c1.6-1,2.5-2.5,3-4.4c-1.1-0.4-2.2-0.7-3.3-1C79,62.8,78.8,63.4,78.6,63.9z" class="st6"/><path d="M44.4,59c-0.2-1.4-1-2.3-2.3-2.8c-1.7-0.6-3.3-0.3-4.7,0.9c-0.2,0.1-0.4,0.3-0.6,0.5c0-2,0-4,0-5.9 c-1,0-2.1,0-3.2,0c0,5.6,0,11.1,0,16.7c1.2,0,2.2,0,3.2,0c0-0.3,0-0.5,0-0.7c0-1.9,0-3.7,0-5.6c0-0.8,0.2-1.6,0.4-2.3 c0.3-0.9,1.5-1.5,2.5-1.3c1,0.2,1.4,0.7,1.5,1.9c0,0.2,0,0.3,0,0.5c0,2.2,0,4.5,0,6.7c0,0.2,0,0.5,0,0.7c1.1,0,2.1,0,3.2,0 c0-0.1,0-0.2,0-0.3c0-2.5,0-5,0-7.5C44.5,60,44.5,59.5,44.4,59z" class="st7"/><path d="M94.7,64.2c0-0.8,0-1.6,0-2.4c0-0.9,0-1.9-0.1-2.8c-0.1-1.5-1-2.4-2.5-2.8c-1.6-0.4-3.3-0.4-4.9,0 c-1.5,0.4-2.7,1.8-2.8,3.4c0.8,0.1,1.6,0.2,2.3,0.3c0.2,0,0.3,0,0.5,0c0.6-1.3,1.1-1.7,2.7-1.5c1.2,0.2,1.6,0.6,1.5,2 c-0.4,0.1-0.9,0.3-1.3,0.4c-1.3,0.3-2.6,0.6-3.9,1c-1.6,0.5-2.3,1.9-2.2,3.5c0.1,1.5,1.2,2.7,2.7,3.1c1.7,0.4,3.2,0.1,4.6-0.9 c0.1-0.1,0.3-0.2,0.5-0.3c0.1,0.4,0.3,0.8,0.4,1.1c1.1,0,2.1,0,3.2,0C94.8,66.9,94.7,65.6,94.7,64.2z M91.4,64.7 c-0.3,1.3-2.1,2-3.2,1.4c-0.6-0.3-0.9-0.8-0.8-1.5c0-0.6,0.4-1,1-1.2c0.3-0.1,0.7-0.2,1-0.3c0.7-0.2,1.4-0.3,2.2-0.5 C91.5,63.4,91.6,64.1,91.4,64.7z" class="st6"/><path d="M57.9,63.2c-0.2-1.3-0.3-2.4-0.6-3.5c-0.6-2.2-2.2-3.4-4.4-3.7c-2.2-0.3-4.1,0.4-5.4,2.3 c-1.4,2.1-1.4,6,0.1,8.1c0.5,0.7,1.1,1.3,1.9,1.6c1.8,0.8,3.6,0.8,5.3,0.1c1.5-0.6,2.3-1.8,2.8-3.3c-0.6-0.1-1.1-0.2-1.6-0.2 c-0.5-0.1-1.1-0.1-1.6-0.2c-0.7,1.5-1.5,1.9-2.8,1.6c-1.1-0.3-1.9-1.6-1.8-2.8C52.4,63.2,55.1,63.2,57.9,63.2z M50.8,58.8 c0.7-0.5,1.6-0.6,2.4-0.2c1,0.5,1.3,1.4,1.3,2.5c-1.6,0-3.1,0-4.7,0C49.8,60.2,50.1,59.4,50.8,58.8z" class="st8"/><path d="M111.1,63.8c-0.1,0.3-0.1,0.5-0.2,0.8c-0.3,1-1,1.6-2,1.6c-1,0-1.8-0.3-2.2-1.3c-0.7-1.7-0.7-3.4-0.1-5.1 c0.3-0.9,1.3-1.4,2.2-1.3c1,0.1,1.6,0.6,1.9,1.6c0,0.1,0.1,0.2,0.1,0.4c1.1-0.1,2.1-0.3,3.2-0.4c-0.6-2-1.6-3.4-3.6-3.8 c-0.9-0.2-1.8-0.3-2.7-0.2c-2.2,0.2-3.8,1.4-4.5,3.6c-0.6,1.8-0.6,3.7,0,5.6c0.6,1.7,1.8,2.8,3.6,3.3c1.3,0.3,2.7,0.3,4-0.1 c1.8-0.6,3.2-2.3,3.3-4.1C113.2,64,112.2,63.9,111.1,63.8z" class="st6"/><path d="M30.8,65.9c-0.7,0.1-1.1-0.1-1.2-0.8c0-0.3,0-0.5,0-0.8c0-1.6,0-3.2,0-4.8c0-0.3,0-0.5,0-0.9 c0.8,0,1.5,0,2.2,0c0-0.9,0-1.7,0-2.5c-0.6,0-1.4,0-2.2,0c0-1.4,0-2.8,0-4.3c-1.2,0.7-2.2,1.3-3.2,2c0,0.8,0,1.5,0,2.3 c-0.5,0-0.9,0-1.4,0c0,0.8,0,1.5,0,2.5c0.5,0,0.9,0,1.4,0c0,0.3,0,0.5,0,0.7c0,1.8,0,3.5,0,5.3c0,0.6,0.1,1.3,0.2,1.9 c0.1,0.7,0.5,1.3,1.2,1.6c1.4,0.7,2.9,0.4,4.3-0.1c-0.1-0.8-0.2-1.6-0.3-2.4C31.4,65.8,31.1,65.9,30.8,65.9z" class="st9"/><path d="M97.6,68.3c1,0,2.1,0,3.2,0c0-5.6,0-11.1,0-16.7c-1.2,0-2.2,0-3.2,0C97.6,57.2,97.6,62.8,97.6,68.3z" class="st10"/><path d="M64.9,56c-1,0.1-1.5,0.9-2.1,1.7c0,0-0.1,0-0.1-0.1c0-0.4,0-0.9,0-1.4c-1,0-1.9,0-3,0c0,4.1,0,8.1,0,12.1 c1.2,0,2.1,0,3.2,0c0-0.4,0-0.6,0-0.8c0-2,0.1-4.1,0.1-6.1c0-0.5,0.2-1.1,0.4-1.5c0.4-0.9,1.2-1.2,2.1-0.9c0.3,0.1,0.7,0.2,1,0.4 c0.3-0.9,0.6-1.8,1-2.7C66.7,56,65.8,55.8,64.9,56z" class="st7"/></g><line x1="-5.7" x2="42.6" y1="84.4" y2="132.6" class="st2"/></g></svg>